<svg width="512" height="512" viewBox="0 0 512 512" fill="none" xmlns="http://www.w3.org/2000/svg">
    <rect x="0.5" y="0.5" width="511" height="511" rx="69.5" fill="#F6F6F6"/>
    <rect x="0.5" y="0.5" width="511" height="511" rx="69.5" stroke="#CCCCCC"/>
    <path d="M403.791 292.81C403.791 294.85 404.183 296.223 404.966 296.929C405.749 297.557 407.158 297.871 409.193 297.871H442.897C444.698 297.871 446.225 298.146 447.477 298.695C448.73 299.244 449.748 299.99 450.531 300.931C451.392 301.794 451.979 302.814 452.292 303.991C452.684 305.09 452.879 306.228 452.879 307.404C452.879 309.837 452.096 312.034 450.531 313.996C448.965 316.036 446.42 317.056 442.897 317.056H400.738C397.058 317.056 393.927 316.703 391.343 315.996C388.76 315.29 386.646 314.152 385.002 312.583C383.436 311.014 382.262 308.974 381.479 306.463C380.774 303.874 380.422 300.735 380.422 297.047V275.626C380.422 271.938 380.774 268.839 381.479 266.328C382.262 263.817 383.436 261.777 385.002 260.208C386.646 258.639 388.76 257.54 391.343 256.912C393.927 256.206 397.058 255.853 400.738 255.853H413.421V238.787C413.421 238.002 413.225 237.257 412.834 236.551C412.442 235.845 411.581 235.492 410.25 235.492H391.578C389.778 235.492 388.251 235.217 386.998 234.668C385.746 234.118 384.728 233.373 383.945 232.432C383.162 231.49 382.575 230.431 382.183 229.254C381.792 228.077 381.596 226.9 381.596 225.723C381.596 224.546 381.753 223.369 382.066 222.192C382.457 221.015 383.045 219.956 383.827 219.014C384.689 218.072 385.746 217.327 386.998 216.778C388.251 216.15 389.778 215.836 391.578 215.836H416.005C420.076 215.836 423.403 216.15 425.987 216.778C428.649 217.406 430.762 218.426 432.328 219.838C433.894 221.25 434.99 223.094 435.616 225.37C436.243 227.645 436.556 230.47 436.556 233.844V275.038H408.019C405.984 275.038 404.77 275.391 404.379 276.097C403.987 276.725 403.791 278.059 403.791 280.099V292.81ZM460.865 321.999V289.75H450.765C448.965 289.75 447.438 289.475 446.185 288.926C445.011 288.298 443.993 287.514 443.132 286.572C442.349 285.631 441.762 284.571 441.371 283.394C441.057 282.139 440.901 280.923 440.901 279.746C440.901 278.569 441.057 277.392 441.371 276.215C441.762 275.038 442.349 273.979 443.132 273.037C443.915 272.017 444.933 271.232 446.185 270.683C447.438 270.055 448.965 269.741 450.765 269.741H460.865V255.147H450.883C449.082 255.147 447.556 254.872 446.303 254.323C445.129 253.695 444.111 252.911 443.25 251.969C442.467 251.028 441.88 249.968 441.488 248.791C441.175 247.536 441.018 246.32 441.018 245.143C441.018 243.966 441.175 242.789 441.488 241.612C441.88 240.435 442.467 239.376 443.25 238.434C444.032 237.414 445.05 236.629 446.303 236.08C447.556 235.452 449.082 235.139 450.883 235.139H460.865V223.133C460.865 219.289 462 216.385 464.27 214.424C466.541 212.462 469.242 211.481 472.373 211.481C475.427 211.481 478.128 212.501 480.476 214.542C482.825 216.503 484 219.367 484 223.133V321.999H460.865Z" fill="#97C751"/>
    <path d="M276.631 302.181C273.236 301.598 270.511 300.812 268.456 299.822C266.401 298.832 264.875 297.535 263.879 295.931C262.882 294.327 262.299 292.396 262.129 290.137C262.049 287.815 262.281 285.069 262.823 281.898L275.001 210.67C275.702 206.571 277.285 203.818 279.749 202.41C282.214 201.002 285.144 200.59 288.539 201.173C291.857 201.743 294.361 203.128 296.05 205.329C297.829 207.466 298.375 210.545 297.688 214.566L294.653 232.315L314.33 235.695L317.365 217.946C318.066 213.847 319.61 211.087 321.997 209.666C324.385 208.245 327.238 207.819 330.556 208.389C333.951 208.972 336.493 210.364 338.182 212.565C339.962 214.701 340.507 217.78 339.82 221.802L335.377 247.787L349.382 250.193L354.52 220.147C355.154 216.435 356.788 213.85 359.42 212.391C362.066 210.855 364.893 210.346 367.902 210.863C369.369 211.114 370.75 211.63 372.046 212.41C373.356 213.113 374.472 214.021 375.393 215.134C376.315 216.248 376.965 217.554 377.345 219.052C377.801 220.563 377.871 222.247 377.553 224.103L360.853 321.78L337.819 317.824L345.991 270.03L331.985 267.624L324.666 310.431L276.631 302.181ZM305.484 287.433L311.097 254.604L291.42 251.224L286.322 281.038C286.098 282.352 286.145 283.236 286.465 283.689C286.875 284.078 287.736 284.385 289.048 284.61L305.484 287.433Z" fill="#97C751"/>
    <path d="M162.111 317.291C158.432 317.291 155.457 317.056 153.186 316.585C150.994 316.114 149.311 315.251 148.137 313.996C146.962 312.74 146.179 311.014 145.788 308.817C145.396 306.541 145.201 303.638 145.201 300.107V232.667C145.201 229.136 145.396 226.272 145.788 224.075C146.179 221.8 146.962 220.034 148.137 218.779C149.311 217.523 150.994 216.699 153.186 216.307C155.457 215.836 158.432 215.601 162.111 215.601H210.377C213.665 215.601 215.975 216.542 217.306 218.426C218.715 220.309 219.42 222.466 219.42 224.899C219.42 227.41 218.715 229.607 217.306 231.49C215.975 233.373 213.665 234.315 210.377 234.315H204.623C203.292 234.315 202.431 234.511 202.039 234.903C201.648 235.295 201.452 236.159 201.452 237.492V295.399C201.452 296.733 201.648 297.596 202.039 297.989C202.431 298.381 203.292 298.577 204.623 298.577H212.491C215.857 298.577 218.206 299.519 219.537 301.402C220.868 303.285 221.533 305.443 221.533 307.875C221.533 310.386 220.829 312.583 219.42 314.466C218.089 316.349 215.779 317.291 212.491 317.291H162.111ZM224.587 222.898C224.587 219.132 225.722 216.307 227.992 214.424C230.341 212.462 233.042 211.481 236.095 211.481C237.583 211.481 239.031 211.756 240.44 212.305C241.85 212.776 243.063 213.482 244.081 214.424C245.177 215.365 246.038 216.542 246.664 217.955C247.291 219.367 247.604 221.015 247.604 222.898V252.675H249.835C251.636 252.675 253.163 252.989 254.415 253.617C255.668 254.245 256.686 255.069 257.469 256.089C258.251 257.03 258.799 258.129 259.113 259.384C259.504 260.561 259.7 261.738 259.7 262.915C259.7 264.092 259.504 265.308 259.113 266.564C258.799 267.741 258.212 268.839 257.351 269.859C256.568 270.801 255.55 271.585 254.298 272.213C253.045 272.841 251.558 273.155 249.835 273.155H247.604V321.999H224.587V222.898ZM166.926 295.399C166.926 296.733 167.122 297.596 167.513 297.989C167.905 298.381 168.766 298.577 170.097 298.577H179.844V234.315H170.097C168.766 234.315 167.905 234.511 167.513 234.903C167.122 235.295 166.926 236.159 166.926 237.492V295.399Z" fill="#97C751"/>
    <path d="M108.56 321.999V293.987H91.7672C90.6711 302.618 87.2655 309.052 81.5503 313.289C75.9135 317.605 68.8282 319.763 60.2946 319.763C55.5972 319.763 51.2521 319.096 47.2593 317.762C43.3448 316.506 39.9392 314.584 37.0425 311.995C34.2241 309.327 31.9928 306.031 30.3487 302.108C28.7829 298.106 28 293.477 28 288.22V244.907C28 239.65 28.7829 235.06 30.3487 231.137C31.9928 227.135 34.2241 223.84 37.0425 221.25C39.9392 218.582 43.3448 216.621 47.2593 215.365C51.2521 214.032 55.5972 213.365 60.2946 213.365C68.2802 213.365 75.0131 215.248 80.4934 219.014C86.052 222.78 89.6534 228.391 91.2975 235.845H108.56V223.133C108.56 219.289 109.696 216.385 111.966 214.424C114.236 212.462 116.937 211.481 120.069 211.481C123.122 211.481 125.823 212.501 128.172 214.542C130.521 216.503 131.695 219.367 131.695 223.133V321.999H108.56ZM50.665 289.044C50.665 293.124 51.5653 296.066 53.366 297.871C55.2449 299.676 57.5545 300.578 60.2946 300.578C63.0348 300.578 65.3052 299.676 67.1058 297.871C68.9848 296.066 69.9243 293.124 69.9243 289.044V244.084C69.9243 240.082 68.9848 237.179 67.1058 235.374C65.3052 233.491 63.0348 232.549 60.2946 232.549C57.5545 232.549 55.2449 233.491 53.366 235.374C51.5653 237.179 50.665 240.082 50.665 244.084V289.044ZM92.2369 274.449H108.56V255.382H92.2369V274.449Z" fill="#97C751"/>
    <path fill-rule="evenodd" clip-rule="evenodd" d="M226.27 166.524C231.987 168.433 238.818 172.571 245.838 181.17C250.743 187.179 254.253 194.469 256.725 200.6C260.148 191.373 266.899 180.881 279.903 176.971C281.947 176.356 284.102 177.519 284.715 179.567C285.328 181.616 284.168 183.775 282.124 184.39C269.549 188.171 264.141 200.411 262.057 209.81C261.887 210.574 261.443 212.01 260.722 213.117C260.525 213.421 260.197 213.872 259.713 214.287C259.255 214.679 258.288 215.349 256.9 215.345C255.369 215.34 254.289 214.53 253.698 213.841C253.16 213.214 252.875 212.537 252.716 212.082C252.684 211.989 252.651 211.894 252.617 211.798C250.324 205.23 246.462 194.168 239.856 186.075C233.664 178.491 228.018 175.273 223.826 173.872C220.198 172.66 217.509 172.727 215.753 172.77C215.461 172.777 215.196 172.784 214.956 172.784C212.822 172.784 211.092 171.05 211.092 168.911C211.092 166.772 212.822 165.038 214.956 165.038C215.105 165.038 215.297 165.032 215.531 165.025C217.266 164.972 221.266 164.852 226.27 166.524Z" fill="#97C751"/>
</svg>